<svg width="24" height="24" viewBox="0 0 24 24" fill="none" xmlns="http://www.w3.org/2000/svg">
<path d="M14.9432 14.9642C14.7411 15.3179 14.5221 15.6547 14.3032 15.9747C15.7179 16.2947 16.56 16.8505 16.56 17.2716C16.56 17.8947 14.6905 18.8379 11.8611 18.8379C9.03158 18.8379 7.16211 17.8947 7.16211 17.2716C7.16211 16.8505 8.00421 16.3116 9.41895 15.9747C9.2 15.6547 8.98105 15.3179 8.77895 14.9642C7.16211 15.3853 6 16.1432 6 17.2716C6 19.0568 8.94737 20 11.8611 20C14.7747 20 17.7221 19.0568 17.7221 17.2716C17.7221 16.1432 16.56 15.3853 14.9432 14.9642Z" fill="#2699FB"/>
<path d="M12.3832 16.8C13.579 15.0316 16.4421 10.6021 16.4421 8.59789C16.4421 6.05474 14.3874 4 11.8611 4C9.33476 4 7.26318 6.05474 7.26318 8.59789C7.26318 10.6021 10.1432 15.0316 11.339 16.8C11.5916 17.1537 12.1306 17.1537 12.3832 16.8ZM9.72213 8.59789C9.72213 7.41895 10.6821 6.45895 11.8611 6.45895C13.04 6.45895 14 7.41895 14 8.59789C14 9.77684 13.04 10.72 11.8611 10.72C10.6821 10.72 9.72213 9.76 9.72213 8.59789Z" fill="#FFC200"/>
</svg>
