<svg xmlns="http://www.w3.org/2000/svg" width="47" height="42" viewBox="0 0 47 42"><defs><style>.a,.b{fill:none;stroke-linecap:round;stroke-linejoin:round;stroke-width:2px;}.a{stroke:#2699fb;}.b{stroke:#ffc200;}.c{fill:#ffc200;}</style></defs><g transform="translate(-1 -1)"><path class="a" d="M2,11.714A7.609,7.609,0,0,1,9.5,4h30A7.609,7.609,0,0,1,47,11.714V32.286A7.609,7.609,0,0,1,39.5,40H9.5A7.609,7.609,0,0,1,2,32.286Z" transform="translate(0 2)"/><path class="b" d="M7,2V6" transform="translate(6.805 0)"/><path class="b" d="M16,2V6" transform="translate(19.054 0)"/><ellipse class="c" cx="2.061" cy="1.746" rx="2.061" ry="1.746" transform="translate(11.618 12.476)"/><ellipse class="c" cx="2.748" cy="1.746" rx="2.748" ry="1.746" transform="translate(22.611 12.476)"/><ellipse class="c" cx="2.061" cy="1.746" rx="2.061" ry="1.746" transform="translate(34.977 12.476)"/><ellipse class="c" cx="2.061" cy="2.328" rx="2.061" ry="2.328" transform="translate(11.618 19.46)"/><ellipse class="c" cx="2.748" cy="2.328" rx="2.748" ry="2.328" transform="translate(22.611 19.46)"/><ellipse class="c" cx="2.061" cy="2.328" rx="2.061" ry="2.328" transform="translate(34.977 19.46)"/><ellipse class="c" cx="2.061" cy="2.328" rx="2.061" ry="2.328" transform="translate(11.618 27.607)"/></g></svg>