<svg xmlns="http://www.w3.org/2000/svg" width="45" height="37" viewBox="0 0 45 37"><defs><style>.a{fill:#ffc200;}.b{fill:none;stroke:#2699fb;stroke-linecap:round;stroke-width:2px;}</style></defs><g transform="translate(-3 -3)"><ellipse class="a" cx="3.214" cy="2.917" rx="3.214" ry="2.917" transform="translate(3 18.583)"/><ellipse class="a" cx="3.214" cy="2.917" rx="3.214" ry="2.917" transform="translate(15.857 18.583)"/><ellipse class="a" cx="3.214" cy="2.917" rx="3.214" ry="2.917" transform="translate(28.714 18.583)"/><ellipse class="a" cx="3.214" cy="2.917" rx="3.214" ry="2.917" transform="translate(41.571 18.583)"/><path class="b" d="M4.333,14.694V10.563C4.333,6.938,7.571,4,11.566,4H35.673C39.667,4,42.9,6.938,42.9,10.563v4.132M4.333,28.306v4.132C4.333,36.062,7.571,39,11.566,39H35.673c3.994,0,7.232-2.938,7.232-6.562V28.306" transform="translate(1.881)"/></g></svg>