<svg xmlns="http://www.w3.org/2000/svg" width="45" height="35" viewBox="0 0 45 35"><defs><style>.a{fill:#2699fb;}.a,.b{fill-rule:evenodd;}.b{fill:#ffc200;}</style></defs><g transform="translate(-2 -5)"><path class="a" d="M18.263,26.3,13.98,11.373,9.483,26.3Zm1.309,4.565,2.171,7.569a1.917,1.917,0,0,0,2.485,1.443,2.382,2.382,0,0,0,1.242-2.887L17.019,7.531A3.266,3.266,0,0,0,14,5a3.256,3.256,0,0,0-3.006,2.478L2.111,36.963a2.392,2.392,0,0,0,1.205,2.908,1.909,1.909,0,0,0,2.5-1.4l2.29-7.6Z" transform="translate(0 0)"/><path class="b" d="M15.011,13.018C17.053,9.143,21.029,8,24.385,8c4.45,0,8.9,2.868,8.9,7.948v17.26A2.259,2.259,0,0,1,31.061,35.5a2.228,2.228,0,0,1-2.071-1.451A12.668,12.668,0,0,1,22.9,35.5a9.311,9.311,0,0,1-6.166-2.165A8.088,8.088,0,0,1,14,27.1a7.807,7.807,0,0,1,2.631-5.941c1.819-1.606,4.433-2.461,7.753-2.461h4.451V15.948c0-1.649-1.483-3.364-4.45-3.364-2.578,0-4.535.862-5.461,2.62a2.193,2.193,0,0,1-3.017.922A2.327,2.327,0,0,1,15.011,13.018ZM28.835,23.278H24.384c-2.614,0-4.079.672-4.857,1.358A3.167,3.167,0,0,0,18.451,27.1a3.454,3.454,0,0,0,1.159,2.738A4.964,4.964,0,0,0,22.9,30.917a7.757,7.757,0,0,0,4.711-1.371,2.643,2.643,0,0,0,1.223-1.685Z" transform="translate(13.714 4.5)"/></g></svg>