<svg width="24" height="24" viewBox="0 0 24 24" fill="none" xmlns="http://www.w3.org/2000/svg">
<path fill-rule="evenodd" clip-rule="evenodd" d="M9.5892 13.5216L7.59063 7.54938L5.49212 13.5216H9.5892ZM10.2003 15.3477L11.2135 18.3755C11.3736 18.8538 11.8927 19.1124 12.373 18.9529C12.8532 18.7934 13.1128 18.2764 12.9527 17.798L9.00866 6.0123C8.80636 5.40777 8.23838 5 7.59864 5C6.96704 5 6.40442 5.39759 6.19577 5.9914L2.05171 17.7851C1.88447 18.2611 2.13625 18.782 2.61407 18.9485C3.09188 19.115 3.6148 18.8643 3.78204 18.3884L4.85048 15.3477H10.2003Z" fill="#2699FB"/>
<path fill-rule="evenodd" clip-rule="evenodd" d="M14.472 10.0074C15.4245 8.45721 17.2804 8 18.8462 8C20.9228 8 23 9.14708 23 11.1791V18.0833C23 18.5896 22.5352 19 21.9616 19C21.5225 19 21.1471 18.7595 20.9952 18.4194C20.224 18.7796 19.2622 19 18.1538 19C17.0878 19 16.0581 18.7177 15.2763 18.1338C14.4773 17.537 14 16.6685 14 15.6389C14 14.7907 14.367 13.9138 15.228 13.2624C16.0768 12.6201 17.2969 12.2778 18.8461 12.2778H20.9231V11.1791C20.9231 10.5196 20.2312 9.83333 18.8462 9.83333C17.643 9.83333 16.7297 10.1782 16.2976 10.8815C16.0241 11.3265 15.3939 11.4916 14.8897 11.2502C14.3856 11.0089 14.1985 10.4524 14.472 10.0074ZM20.9231 14.1111H18.8461C17.6261 14.1111 16.9424 14.3799 16.5796 14.6543C16.2291 14.9195 16.0769 15.2648 16.0769 15.6389C16.0769 16.1371 16.2919 16.4908 16.6179 16.7342C16.9611 16.9907 17.489 17.1667 18.1538 17.1667C19.1674 17.1667 19.8989 16.9118 20.3521 16.6184C20.8382 16.3038 20.923 16.0133 20.923 15.9444L20.9231 14.1111Z" fill="#FFC200"/>
</svg>
