<svg xmlns="http://www.w3.org/2000/svg" width="47" height="37.408" viewBox="0 0 47 37.408"><defs><style>.a,.b,.c{fill:none;stroke-linejoin:round;}.a,.b{stroke:#ffc200;stroke-linecap:round;}.b,.c{stroke-width:2px;}.c{stroke:#2699fb;}</style></defs><g transform="translate(-1 -2)"><path class="a" d="M9.541,12.833c1.956,0,3.541-1.306,3.541-2.917S11.5,7,9.541,7,6,8.306,6,9.917,7.586,12.833,9.541,12.833Z" transform="translate(5.444 3.778)"/><path class="b" d="M41.775,19.722,29.971,10,4,31.389" transform="translate(2.722 6.611)"/><path class="c" d="M42,3H7C4.239,3,2,4.741,2,6.889V34.111C2,36.259,4.239,38,7,38H42c2.761,0,5-1.741,5-3.889V6.889C47,4.741,44.761,3,42,3Z" transform="translate(0 0)"/></g></svg>