<svg xmlns="http://www.w3.org/2000/svg" xmlns:xlink="http://www.w3.org/1999/xlink" width="31.032" height="33.068" viewBox="0 0 31.032 33.068"><defs><style>.a{fill:#ffc242;}.b{fill:none;}.c{fill:#2699fb;}.d,.e{stroke:none;}.e{fill:#2699fb;}.f{filter:url(#c);}.g{filter:url(#a);}</style><filter id="a" x="2.352" y="0" width="28.68" height="27.887" filterUnits="userSpaceOnUse"><feOffset dy="3" input="SourceAlpha"/><feGaussianBlur stdDeviation="3" result="b"/><feFlood flood-opacity="0.161"/><feComposite operator="in" in2="b"/><feComposite in="SourceGraphic"/></filter><filter id="c" x="0" y="1.529" width="28.68" height="27.887" filterUnits="userSpaceOnUse"><feOffset dy="3" input="SourceAlpha"/><feGaussianBlur stdDeviation="3" result="d"/><feFlood flood-color="#f1c40e"/><feComposite operator="in" in2="d"/><feComposite in="SourceGraphic"/></filter></defs><g transform="translate(7.375 6)"><g class="g" transform="matrix(1, 0, 0, 1, -7.38, -6)"><path class="a" d="M5.34,0a5.153,5.153,0,0,1,5.34,4.943A5.153,5.153,0,0,1,5.34,9.887,5.153,5.153,0,0,1,0,4.943,5.153,5.153,0,0,1,5.34,0Z" transform="translate(11.35 6)"/></g><g class="f" transform="matrix(1, 0, 0, 1, -7.38, -6)"><g class="b" transform="translate(9 7.53)"><path class="d" d="M5.34,0a5.153,5.153,0,0,1,5.34,4.943A5.153,5.153,0,0,1,5.34,9.887,5.153,5.153,0,0,1,0,4.943,5.153,5.153,0,0,1,5.34,0Z"/><path class="e" d="M 5.340197086334229 3.000001907348633 C 4.049807071685791 3.000001907348633 2.999997138977051 3.871791839599609 2.999997138977051 4.943361759185791 C 2.999997138977051 6.014931678771973 4.049807071685791 6.886721611022949 5.340197086334229 6.886721611022949 C 6.630587100982666 6.886721611022949 7.680397033691406 6.014931678771973 7.680397033691406 4.943361759185791 C 7.680397033691406 3.871791839599609 6.630587100982666 3.000001907348633 5.340197086334229 3.000001907348633 M 5.340197086334229 1.9073486328125e-06 C 8.289506912231445 1.9073486328125e-06 10.68039703369141 2.213221549987793 10.68039703369141 4.943361759185791 C 10.68039703369141 7.673501968383789 8.289506912231445 9.886721611022949 5.340197086334229 9.886721611022949 C 2.390887260437012 9.886721611022949 -2.86102294921875e-06 7.673501968383789 -2.86102294921875e-06 4.943361759185791 C -2.86102294921875e-06 2.213221549987793 2.390887260437012 1.9073486328125e-06 5.340197086334229 1.9073486328125e-06 Z"/></g></g><path class="c" d="M.482.005A7.277,7.277,0,0,1,8.094,7.722L7.608,20.69A7.277,7.277,0,0,1,0,12.973Z" transform="translate(5.214 27.061) rotate(-130)"/></g></svg>