<svg xmlns="http://www.w3.org/2000/svg" width="47.412" height="42.675" viewBox="0 0 47.412 42.675"><defs><style>.a,.b,.d{fill:none;stroke-linecap:round;stroke-linejoin:round;}.a,.b{stroke:#ffc200;}.b,.d{stroke-width:2px;}.c{fill:#2699fb;}.d{stroke:#2699fb;}</style></defs><g transform="translate(-1 -0.588)"><path class="a" d="M10.168,11.6A2.431,2.431,0,1,0,7.737,9.168,2.431,2.431,0,0,0,10.168,11.6Z" transform="translate(7.85 6.482)"/><path class="b" d="M32.3,16.892l-8.1-8.1L6.368,26.615" transform="translate(5.978 9.291)"/><path class="c" d="M39.526,13.691a2.368,2.368,0,1,0-4.737,0ZM27.435,7.737a2.368,2.368,0,0,0,0-4.737Zm7.355,5.954V31.3h4.737V13.691Zm0,17.605a.974.974,0,0,1-1.053.873v4.737A5.7,5.7,0,0,0,39.526,31.3Zm-1.053.873H9.789v4.737H33.737Zm-23.947,0A.974.974,0,0,1,8.737,31.3H4a5.7,5.7,0,0,0,5.789,5.609ZM8.737,31.3V8.609H4V31.3Zm0-22.687a.974.974,0,0,1,1.053-.873V3A5.7,5.7,0,0,0,4,8.609Zm1.053-.873H27.435V3H9.789Z" transform="translate(2.737 1.368)"/><path class="b" d="M16,5.553l3.947,3.553L27.842,2" transform="translate(19.158)"/><path class="d" d="M25.684,32.684H9.105A7.105,7.105,0,0,1,2,25.579V9" transform="translate(0 9.579)"/></g></svg>