<svg width="47" height="37" viewBox="0 0 47 37" fill="none" xmlns="http://www.w3.org/2000/svg">
<path d="M1 8.5C1 6.51088 1.79018 4.60322 3.1967 3.1967C4.60322 1.79018 6.51088 1 8.5 1H38.5C40.4891 1 42.3968 1.79018 43.8033 3.1967C45.2098 4.60322 46 6.51088 46 8.5V28.5C46 30.4891 45.2098 32.3968 43.8033 33.8033C42.3968 35.2098 40.4891 36 38.5 36H8.5C6.51088 36 4.60322 35.2098 3.1967 33.8033C1.79018 32.3968 1 30.4891 1 28.5V8.5Z" stroke="#2699FB" stroke-width="2" stroke-linecap="round" stroke-linejoin="round"/>
<path d="M16 17.92V19.92H28L22.5 25.42L23.92 26.84L31.84 18.92L23.92 11L22.5 12.42L28 17.92H16Z" fill="#FFC200"/>
</svg>
