<svg xmlns="http://www.w3.org/2000/svg" width="47" height="37" viewBox="0 0 47 37"><defs><style>.a,.b{fill:none;stroke-linecap:round;stroke-linejoin:round;stroke-width:2px;}.a{stroke:#2699fb;}.b{stroke:#ffc242;}</style></defs><g transform="translate(-55.143 -196.75)"><path class="a" d="M4,12.392l6.252-1.232,1.876-3.08L14,5l3.751,6.16,6.252,1.232-5,4.928,1.25,6.16L14,20.4,7.751,23.48,9,17.32Z" transform="translate(64.639 192.75)"/><path class="b" d="M4,12.616l6.442-1.269,1.933-3.173L14.307,5l3.865,6.347,6.442,1.269L19.46,17.693l1.288,6.347-6.442-3.173L7.865,24.04l1.288-6.347Z" transform="translate(76.529 208.71)"/><path class="b" d="M4,12.616l6.442-1.269,1.933-3.173L14.307,5l3.865,6.347,6.442,1.269L19.46,17.693l1.288,6.347-6.442-3.173L7.865,24.04l1.288-6.347Z" transform="translate(52.143 208.15)"/></g></svg>