<svg width="50" height="50" viewBox="0 0 50 50" fill="none" xmlns="http://www.w3.org/2000/svg">
<path fill-rule="evenodd" clip-rule="evenodd" d="M29.584 0H37.416C38.1876 1.7659 39.9497 3 42 3C44.0503 3 45.8124 1.7659 46.584 0H50V50H46.9C46.4367 47.7178 44.419 46 42 46C39.581 46 37.5633 47.7178 37.1 50H29.9C29.4367 47.7178 27.419 46 25 46C22.581 46 20.5633 47.7178 20.1 50H12.9C12.4367 47.7178 10.419 46 8 46C5.58104 46 3.56329 47.7178 3.10002 50H0V0H3.41604C4.1876 1.7659 5.94968 3 8 3C10.0503 3 11.8124 1.7659 12.584 0H20.416C21.1876 1.7659 22.9497 3 25 3C27.0503 3 28.8124 1.7659 29.584 0Z" fill="#FFC200"/>
<rect x="6.25" y="19.25" width="37.5" height="19.5" rx="1.75" stroke="#2699FB" stroke-width="0.5" stroke-dasharray="3 1"/>
<path d="M28.3829 15.2639C28.383 16.0933 12.9171 24.3883 10.1051 26.3237C7.29316 28.2592 10.6676 31.024 11.2299 30.4712C11.7922 29.9183 19.6658 28.2592 19.6658 28.2592C19.6658 28.2592 13.0001 32.8939 13 34C12.9999 35.1061 14.5317 37.3293 16.5 36.5C18.4683 35.6707 25 32.1301 25 32.1301C25 32.1301 17.9787 37.9364 18.2598 39.5955C18.5409 41.2546 20.5941 43.5528 22 43C23.4059 42.4472 38.2248 32.1301 38.2248 32.1301C39.5971 31.6068 40.5649 25.968 38.2248 26.3237C35.8846 26.6795 29.5077 30.4712 29.5077 30.4712C29.5077 30.4712 37.4999 23.659 37.5 22C37.5001 20.341 36.8437 20.5529 36 20C35.1563 19.4471 26.1333 24.6648 26.1333 24.6648C26.1333 24.6648 29.5077 22.1763 31.7572 18.8584C34.0068 15.5404 28.3828 14.4345 28.3829 15.2639Z" fill="white" stroke="#2699FB" stroke-width="0.5"/>
<path d="M27.709 24.9553L27.9788 26.6625L29.5312 27.4542L28.7483 29.0022L29.5356 30.5502L27.9699 31.3419L27.7001 33.0491L25.9797 32.7793L24.7545 34L23.525 32.7616L21.8178 33.0447L21.5436 31.3242L20 30.5369L20.7873 28.9889L20.0044 27.4542L21.5568 26.6537L21.8266 24.9598L23.5383 25.2428L24.7678 24L25.9929 25.2251L27.709 24.9553ZM23.6621 26.7908C23.4861 26.7908 23.3174 26.8607 23.193 26.9851C23.0686 27.1095 22.9987 27.2783 22.9987 27.4542C22.9987 27.6302 23.0686 27.7989 23.193 27.9233C23.3174 28.0478 23.4861 28.1176 23.6621 28.1176C23.838 28.1176 24.0068 28.0478 24.1312 27.9233C24.2556 27.7989 24.3255 27.6302 24.3255 27.4542C24.3255 27.2783 24.2556 27.1095 24.1312 26.9851C24.0068 26.8607 23.838 26.7908 23.6621 26.7908ZM25.8735 29.8868C25.6976 29.8868 25.5288 29.9567 25.4044 30.0811C25.28 30.2055 25.2101 30.3742 25.2101 30.5502C25.2101 30.7262 25.28 30.8949 25.4044 31.0193C25.5288 31.1437 25.6976 31.2136 25.8735 31.2136C26.0495 31.2136 26.2182 31.1437 26.3426 31.0193C26.467 30.8949 26.5369 30.7262 26.5369 30.5502C26.5369 30.3742 26.467 30.2055 26.3426 30.0811C26.2182 29.9567 26.0495 29.8868 25.8735 29.8868ZM23.18 31.2136L26.9792 27.4144L26.3556 26.7908L22.5564 30.59L23.18 31.2136Z" fill="#2699FB"/>
<path d="M25 4L26.1226 7.45492H29.7553L26.8164 9.59017L27.9389 13.0451L25 10.9098L22.0611 13.0451L23.1836 9.59017L20.2447 7.45492H23.8774L25 4Z" fill="#2699FB"/>
<path d="M34.5 9L35.0613 10.7275H36.8776L35.4082 11.7951L35.9695 13.5225L34.5 12.4549L33.0305 13.5225L33.5918 11.7951L32.1224 10.7275H33.9387L34.5 9Z" fill="#2699FB"/>
<path d="M15.5 9L16.0613 10.7275H17.8776L16.4082 11.7951L16.9695 13.5225L15.5 12.4549L14.0305 13.5225L14.5918 11.7951L13.1224 10.7275H14.9387L15.5 9Z" fill="#2699FB"/>
</svg>
