<svg xmlns="http://www.w3.org/2000/svg" width="45.604" height="35.544" viewBox="0 0 45.604 35.544"><defs><style>.a{fill:#2699fb;}.b{fill:#ffc200;}</style></defs><g transform="matrix(1, -0.017, 0.017, 1, -2.087, -4.415)"><path class="a" d="M33.5,7.5a2.648,2.648,0,0,0-.659-1.768A2.142,2.142,0,0,0,31.25,5h-27a2.142,2.142,0,0,0-1.591.732,2.7,2.7,0,0,0,0,3.536A2.142,2.142,0,0,0,4.25,10H15.5V37.5a2.648,2.648,0,0,0,.659,1.768,2.095,2.095,0,0,0,3.182,0A2.648,2.648,0,0,0,20,37.5V10H31.25a2.142,2.142,0,0,0,1.591-.732A2.648,2.648,0,0,0,33.5,7.5Z"/><path class="b" d="M29.75,11H16.25a2.142,2.142,0,0,0-1.591.732,2.7,2.7,0,0,0,0,3.535A2.142,2.142,0,0,0,16.25,16h4.5V28.5a2.648,2.648,0,0,0,.659,1.768,2.094,2.094,0,0,0,3.182,0A2.648,2.648,0,0,0,25.25,28.5V16h4.5a2.142,2.142,0,0,0,1.591-.732,2.7,2.7,0,0,0,0-3.535A2.142,2.142,0,0,0,29.75,11Z" transform="translate(15 9)"/></g></svg>