<svg xmlns="http://www.w3.org/2000/svg" width="47" height="37" viewBox="0 0 47 37"><defs><style>.a,.b{fill:none;stroke-linecap:round;stroke-linejoin:round;}.a{stroke:#2699fb;stroke-width:2px;}.b{stroke:#ffc200;stroke-width:1.5px;}</style></defs><g transform="translate(-2 -5)"><path class="a" d="M3,13.5A7.5,7.5,0,0,1,10.5,6h30A7.5,7.5,0,0,1,48,13.5v20A7.5,7.5,0,0,1,40.5,41h-30A7.5,7.5,0,0,1,3,33.5Z" transform="translate(0 0)"/><path class="b" d="M10.5,22V11.5c0-.771.712-1.251,1.28-.862l7.673,5.25a1.091,1.091,0,0,1,0,1.724l-7.673,5.25C11.213,23.251,10.5,22.771,10.5,22Z" transform="translate(11.25 6.75)"/></g></svg>