<svg xmlns="http://www.w3.org/2000/svg" width="46.412" height="42.321" viewBox="0 0 46.412 42.321"><defs><style>.a,.b{fill:none;stroke:#ffc200;stroke-linecap:round;stroke-linejoin:round;}.b{stroke-width:2px;}.c{fill:#2699fb;}</style></defs><g transform="translate(-1 -0.588)"><path class="a" d="M9.068,13.136A3.068,3.068,0,1,0,6,10.068,3.068,3.068,0,0,0,9.068,13.136Z" transform="translate(5.227 5.227)"/><path class="b" d="M36.727,20.227,26.5,10,4,32.5" transform="translate(3.136 8.364)"/><path class="c" d="M43.955,14.551a2.045,2.045,0,0,0-4.091,0ZM29.636,6.091a2.045,2.045,0,0,0,0-4.091Zm10.227,8.46V36.773h4.091V14.551Zm0,22.222a2.167,2.167,0,0,1-2.273,2.045v4.091a6.253,6.253,0,0,0,6.364-6.136Zm-2.273,2.045H7.364v4.091H37.591Zm-30.227,0a2.168,2.168,0,0,1-2.273-2.045H1a6.253,6.253,0,0,0,6.364,6.136ZM5.091,36.773V8.136H1V36.773Zm0-28.636A2.168,2.168,0,0,1,7.364,6.091V2A6.253,6.253,0,0,0,1,8.136ZM7.364,6.091H29.636V2H7.364Z"/><path class="b" d="M18,5.068l3.409,3.068L28.227,2" transform="translate(17.773)"/></g></svg>